# xmcd CD database file
#
# Track frame offsets:
#	150
#	17225
#	33815
#	52500
#	67690
#	87195
#	106812
#	122137
#	136225
#	155082
#	175317
#
# Disc length: 2566 seconds
#
# Revision: 0
# Processed by: cddbd v1.5PL3 Copyright (c) Steve Scherf et al.
# Submitted via: CDex 1.50
#
DISCID=7e0a040b
DTITLE=DANNY WILDE and THE REMBRANDTS - SPIN THIS
DYEAR=1998
DGENRE=Rock
TTITLE0=Shakespeare's Tragedy
TTITLE1=Long Walk Back
TTITLE2=Out Of Time
TTITLE3=Wishin' Well
TTITLE4=Summertime
TTITLE5=Tomorrow's Mine
TTITLE6=Get It Right
TTITLE7=Eloise
TTITLE8=This Close To Heaven
TTITLE9=Beautiful Thing
TTITLE10=Heard Enough
EXTD=YEAR: 1998
EXTT0=
EXTT1=
EXTT2=
EXTT3=
EXTT4=
EXTT5=
EXTT6=
EXTT7=
EXTT8=
EXTT9=
EXTT10=
PLAYORDER=
